<svg width="40" height="40" viewBox="0 0 40 40" xmlns="http://www.w3.org/2000/svg">
  <!-- Background circle -->
  <circle cx="20" cy="20" r="19" fill="#1e40af" stroke="#1e3a8a" stroke-width="2"/>
  
  <!-- Backpack main body -->
  <rect x="12" y="10" width="16" height="22" rx="2" fill="#ffffff" stroke="#1e40af" stroke-width="1"/>
  
  <!-- Backpack top flap -->
  <path d="M12 10 Q20 8 28 10 L28 14 Q20 12 12 14 Z" fill="#f1f5f9" stroke="#1e40af" stroke-width="1"/>
  
  <!-- Front pocket -->
  <rect x="14" y="16" width="12" height="8" rx="1" fill="#e2e8f0" stroke="#1e40af" stroke-width="0.5"/>
  
  <!-- Zipper line -->
  <line x1="14" y1="20" x2="26" y2="20" stroke="#64748b" stroke-width="0.5" stroke-dasharray="1,1"/>
  
  <!-- Left shoulder strap -->
  <path d="M12 12 Q8 14 8 18 Q8 22 10 26 Q11 28 12 30" fill="none" stroke="#1e40af" stroke-width="2" stroke-linecap="round"/>
  
  <!-- Right shoulder strap -->
  <path d="M28 12 Q32 14 32 18 Q32 22 30 26 Q29 28 28 30" fill="none" stroke="#1e40af" stroke-width="2" stroke-linecap="round"/>
  
  <!-- Top handle -->
  <path d="M16 8 Q20 6 24 8" fill="none" stroke="#1e40af" stroke-width="2" stroke-linecap="round"/>
  
  <!-- Side compression straps -->
  <line x1="10" y1="18" x2="12" y2="18" stroke="#64748b" stroke-width="1"/>
  <line x1="28" y1="18" x2="30" y2="18" stroke="#64748b" stroke-width="1"/>
  <line x1="10" y1="24" x2="12" y2="24" stroke="#64748b" stroke-width="1"/>
  <line x1="28" y1="24" x2="30" y2="24" stroke="#64748b" stroke-width="1"/>
  
  <!-- Brand initial 'M' -->
  <text x="20" y="26" text-anchor="middle" font-family="Arial, sans-serif" font-size="8" font-weight="bold" fill="#1e40af">M</text>
  
  <!-- Bottom reinforcement -->
  <rect x="12" y="30" width="16" height="2" rx="1" fill="#64748b"/>
  
  <!-- Buckle details -->
  <rect x="18" y="14" width="4" height="2" rx="0.5" fill="#64748b"/>
  <circle cx="20" cy="15" r="0.5" fill="#ffffff"/>
</svg>